<?xml version="1.0" encoding="UTF-8" standalone="no"?>
<!-- Generator: Adobe Illustrator 26.0.1, SVG Export Plug-In . SVG Version: 6.00 Build 0)  -->

<svg
   version="1.1"
   id="Camada_1"
   x="0px"
   y="0px"
   viewBox="0 0 24 24"
   xml:space="preserve"
   sodipodi:docname="excel.svg"
   width="24"
   height="24"
   inkscape:version="1.3.2 (091e20e, 2023-11-25, custom)"
   xmlns:inkscape="http://www.inkscape.org/namespaces/inkscape"
   xmlns:sodipodi="http://sodipodi.sourceforge.net/DTD/sodipodi-0.dtd"
   xmlns="http://www.w3.org/2000/svg"
   xmlns:svg="http://www.w3.org/2000/svg"><defs
   id="defs1" /><sodipodi:namedview
   id="namedview1"
   pagecolor="#ffffff"
   bordercolor="#000000"
   borderopacity="0.25"
   inkscape:showpageshadow="2"
   inkscape:pageopacity="0.0"
   inkscape:pagecheckerboard="0"
   inkscape:deskcolor="#d1d1d1"
   inkscape:zoom="5.7134228"
   inkscape:cx="53.820628"
   inkscape:cy="37.193117"
   inkscape:window-width="1366"
   inkscape:window-height="697"
   inkscape:window-x="-8"
   inkscape:window-y="-8"
   inkscape:window-maximized="1"
   inkscape:current-layer="Camada_1" />
<g
   id="g1"
   transform="matrix(0.02368166,0,0,0.02368166,0.15798592,0.15798592)">
	<path
   d="M 565.3,168.1 V 39.2 L 68.9,174.3 v 651.5 l 496.4,135.1 v -129 H 931.2 V 168.1 Z m 0,483.9 h 92.6 v 80.7 h -92.6 z m 0,-130.3 h 92.6 v 80.7 h -92.6 z m 0,-130.2 h 92.6 v 80.7 h -92.6 z m 0,-130.4 h 92.6 v 80.7 H 565.3 Z M 716,652 h 115.8 v 80.7 H 716 Z m 0,-130.3 h 115.8 v 80.7 H 716 Z m 0,-130.2 h 115.8 v 80.7 H 716 Z m 0,-130.4 h 115.8 v 80.7 H 716 Z m -456.1,103.3 60.3,95.3 62.9,-101.2 52.1,-2.5 -87.8,139.6 94.1,150.1 -56.6,-2.8 -66.3,-109.5 -67.3,103 -53.2,-2.6 L 292.2,495.6 204.3,367 Z"
   id="path1" />
</g>
</svg>
